<svg enable-background="new 0 0 128 128" viewBox="0 0 128 128" xmlns="http://www.w3.org/2000/svg"><ellipse cx="64" cy="65.114" fill="#ffcfb8" rx="53.136" ry="53.021"/><path d="m76.242 54.021c.763-1.683 1.198-3.546 1.198-5.513 0-7.407-6.017-13.411-13.44-13.411s-13.44 6.004-13.44 13.411c0 1.967.435 3.83 1.198 5.513-8.684 4.446-14.638 13.449-14.638 23.858 0 14.813 12.035 26.821 26.88 26.821s26.88-12.008 26.88-26.821c0-10.409-5.954-19.412-14.638-23.858z" fill="#cff1fb"/><path d="m74.7 62.132c-.737-1.032-1.626-1.954-2.63-2.731-1.456-1.133-3.159-1.966-5.01-2.408-1.278-.303-2.63-.418-4.024-.32-.588.042-1.165.124-1.73.243-4.998 1.038-8.986 4.952-10.128 9.904-.16.67-.264 1.367-.309 2.076-.086 1.349.027 2.66.321 3.902 1.058 4.466 4.395 8.045 8.725 9.453.434.142.716.566.672 1.02l-.945 10.414c-.155 1.672 1.168 3.117 2.85 3.117l3.016-.003c.791.001 1.52-.335 2.036-.845.582-.576.898-1.38.817-2.268l-.948-10.411c-.042-.457.235-.881.672-1.02 1.376-.448 2.654-1.118 3.792-1.969 1.102-.821 2.068-1.809 2.862-2.933v-.006c1.028-1.435 1.765-3.09 2.14-4.881.181-.869.279-1.773.279-2.698 0-.901-.092-1.776-.264-2.624-.372-1.842-1.133-3.538-2.194-5.012z" fill="#ffcfb8"/><path d="m66.198 63.123c-.691-.231-1.43-.354-2.197-.354-.706 0-1.386.105-2.027.298-2.259.678-4.037 2.464-4.699 4.724-.188.626-.287 1.289-.287 1.976 0 .783.129 1.538.369 2.239.721 2.137 2.446 3.812 4.617 4.464.642.193 1.321.298 2.027.298.768 0 1.506-.123 2.197-.354 2.092-.684 3.747-2.327 4.447-4.408.24-.702.369-1.456.369-2.239 0-.687-.1-1.351-.287-1.976-.644-2.203-2.352-3.954-4.529-4.668z" fill="#cff1fb"/><path d="m68.022 10.76c-.828-.06-1.545.559-1.605 1.384-.06.824.561 1.542 1.387 1.602 26.822 1.95 47.832 24.514 47.832 51.37 0 28.41-23.164 51.524-51.636 51.524s-51.636-23.115-51.636-51.525c0-26.91 21.057-49.478 47.937-51.378.826-.058 1.449-.774 1.39-1.599s-.781-1.465-1.602-1.387c-28.444 2.01-50.725 25.89-50.725 54.364 0 30.061 24.51 54.517 54.636 54.517s54.636-24.457 54.636-54.517c0-28.417-22.232-52.292-50.614-54.355z" fill="#f98770"/><g fill="#746887"><path d="m90.158 7.5c-.829 0-1.5.67-1.5 1.497v16.781l-14.43 14.398c-.586.585-.586 1.532 0 2.116.293.292.677.438 1.061.438s.768-.146 1.061-.438l14.87-14.837c.281-.281.439-.662.439-1.058v-17.4c-.001-.827-.673-1.497-1.501-1.497z"/><path d="m126.5 41.779h-31.25c-.398 0-.779.158-1.061.438l-14.05 14.02c-.586.585-.586 1.532 0 2.116.293.292.677.438 1.061.438s.768-.146 1.061-.438l13.611-13.582h30.628c.829 0 1.5-.67 1.5-1.497 0-.825-.671-1.495-1.5-1.495z"/><path d="m127.437 82.199-22.321-17.819c-.423-.338-.993-.422-1.494-.221l-14.144 5.645c-.769.307-1.143 1.178-.835 1.945.307.769 1.183 1.141 1.95.834l13.332-5.32 21.639 17.273c.276.221.607.328.936.328.44 0 .876-.192 1.172-.561.517-.647.412-1.588-.235-2.104z"/><path d="m101.137 91.803c-.125-.376-.396-.688-.752-.865l-10.452-5.214c-.74-.367-1.641-.069-2.013.669-.37.74-.07 1.638.671 2.008l9.896 4.937 8.732 26.139c.209.627.794 1.023 1.423 1.023.157 0 .317-.024.474-.077.786-.261 1.211-1.109.949-1.893z"/><path d="m78.127 53.34c.54-1.558.813-3.178.813-4.831 0-8.22-6.702-14.908-14.94-14.908s-14.94 6.688-14.94 14.908c0 1.654.273 3.273.813 4.831-8.826 5.055-14.253 14.337-14.253 24.539 0 13.884 10.359 25.92 24.095 27.997.821.117 1.583-.438 1.708-1.256s-.439-1.581-1.258-1.704c-12.282-1.856-21.544-12.62-21.544-25.036 0-9.529 5.296-18.161 13.823-22.526.711-.364 1.011-1.222.682-1.949-.707-1.558-1.064-3.206-1.064-4.896 0-6.57 5.356-11.914 11.94-11.914s11.94 5.345 11.94 11.914c0 1.69-.358 3.337-1.064 4.896-.33.727-.03 1.584.682 1.949 8.523 4.364 13.82 12.996 13.82 22.525 0 12.623-9.443 23.409-21.965 25.09-.821.11-1.397.863-1.287 1.683.102.751.745 1.297 1.485 1.297.066 0 .134-.004.202-.014 14.005-1.88 24.566-13.941 24.566-28.056-.001-10.202-5.428-19.484-14.254-24.539z"/><path d="m39.342 25.778v-16.781c0-.826-.671-1.497-1.5-1.497s-1.5.67-1.5 1.497v17.401c0 .397.158.778.439 1.058l14.87 14.837c.293.292.677.438 1.061.438s.768-.146 1.061-.438c.586-.585.586-1.532 0-2.116z"/><path d="m33.811 42.217c-.281-.281-.663-.438-1.061-.438h-31.25c-.829 0-1.5.67-1.5 1.497 0 .826.671 1.497 1.5 1.497h30.629l13.611 13.581c.293.292.677.438 1.061.438s.768-.146 1.061-.438c.586-.585.586-1.532 0-2.116z"/><path d="m38.522 69.804-14.144-5.645c-.502-.201-1.073-.117-1.494.221l-22.321 17.819c-.647.516-.752 1.458-.234 2.104.296.369.732.561 1.172.561.329 0 .66-.107.936-.328l21.639-17.273 13.332 5.32c.768.307 1.643-.065 1.95-.834.307-.767-.067-1.638-.836-1.945z"/><path d="m38.066 85.723-10.452 5.214c-.356.177-.626.489-.752.865l-8.929 26.727c-.262.784.163 1.632.949 1.893.157.053.317.077.474.077.628 0 1.213-.397 1.423-1.023l8.732-26.139 9.896-4.937c.741-.37 1.041-1.269.671-2.008s-1.271-1.038-2.012-.669z"/></g><path d="m75.922 61.265c-.822-1.152-1.809-2.177-2.93-3.043-1.662-1.293-3.541-2.196-5.584-2.684-.801-.193-1.615.304-1.808 1.108-.192.804.305 1.612 1.11 1.804 1.623.387 3.116 1.104 4.44 2.135.893.69 1.675 1.503 2.331 2.421.965 1.34 1.618 2.832 1.941 4.435.156.766.235 1.549.235 2.327 0 .8-.083 1.605-.248 2.393-.328 1.569-.964 3.021-1.891 4.316-.021.03-.042.06-.061.092-.69.96-1.523 1.807-2.48 2.52-1.023.765-2.153 1.352-3.346 1.74-1.114.353-1.818 1.414-1.712 2.581l.948 10.41c.048.528-.18.874-.38 1.072-.264.261-.62.411-.979.411h-.001l-3.015.003c-.387 0-.745-.158-1.006-.443-.262-.286-.386-.656-.351-1.042l.944-10.403c.112-1.141-.602-2.23-1.7-2.589-3.84-1.249-6.802-4.458-7.729-8.374-.264-1.114-.36-2.279-.284-3.463.04-.625.131-1.238.274-1.836.857-3.718 3.622-6.881 7.215-8.254.774-.296 1.161-1.162.865-1.933-.296-.773-1.165-1.16-1.937-.863-4.583 1.75-7.972 5.63-9.064 10.367-.18.751-.297 1.536-.347 2.33-.094 1.478.026 2.939.358 4.34 1.135 4.792 4.691 8.742 9.326 10.398l-.908 10.007c-.112 1.215.296 2.429 1.121 3.332.825.902 2 1.42 3.224 1.42l3.013-.003h.005c1.142 0 2.267-.467 3.088-1.279.915-.904 1.373-2.167 1.255-3.467l-.911-10.007c1.37-.489 2.657-1.181 3.831-2.058 1.234-.92 2.308-2.02 3.19-3.269.02-.028.039-.057.056-.087 1.137-1.613 1.919-3.414 2.325-5.357.207-.988.312-1.999.312-3.004 0-.977-.099-1.961-.294-2.919-.407-2.023-1.23-3.903-2.441-5.585zm-16.829 21.879c0-.003 0-.005.001-.008 0 .003 0 .005-.001.008zm9.458.534c.003-.001.005-.002.008-.003-.003.001-.005.002-.008.003z" fill="#f98770"/><path d="m66.674 61.703c-1.635-.546-3.457-.573-5.133-.069-2.764.83-4.897 2.975-5.704 5.729-.232.775-.35 1.583-.35 2.405 0 .935.151 1.851.447 2.717.878 2.603 2.974 4.63 5.607 5.42.798.24 1.625.362 2.459.362.917 0 1.817-.145 2.665-.428 2.534-.828 4.553-2.831 5.4-5.347.298-.872.45-1.788.45-2.724 0-.821-.118-1.63-.347-2.395-.784-2.68-2.841-4.801-5.494-5.67zm2.55 9.827c-.549 1.633-1.855 2.927-3.502 3.465-1.049.352-2.23.369-3.316.042-1.703-.512-3.06-1.823-3.63-3.515-.191-.559-.289-1.15-.289-1.755 0-.53.076-1.05.227-1.556.516-1.76 1.93-3.182 3.692-3.711.518-.156 1.054-.235 1.595-.235.593 0 1.172.093 1.729.279 1.721.564 3.051 1.934 3.561 3.676.148.497.224 1.017.224 1.547 0 .606-.098 1.196-.291 1.763z" fill="#f98770"/></svg>